<svg xmlns="http://www.w3.org/2000/svg" xmlns:xlink="http://www.w3.org/1999/xlink" width="222.569" height="22.602" viewBox="0 0 58.888 5.98" xmlns:v="https://vecta.io/nano"><path d="M5.218 2.879q0 .349-.032.603H1.704q.085.709.402.995.317.286.878.286.339 0 .656-.116.317-.127.688-.381l.688.931q-.984.783-2.191.783-1.365 0-2.096-.804Q0 4.371 0 3.016q0-.857.307-1.535.307-.688.9-1.079Q1.799 0 2.625 0 3.842 0 4.53.762q.688.762.688 2.117zm-1.64-.476q-.021-1.291-.91-1.291-.434 0-.677.317-.233.317-.286 1.048h1.873zM9.459 0q.73 0 1.143.445.413.445.413 1.249V5.8H9.342V1.979q0-.423-.138-.582-.127-.169-.392-.169-.508 0-.974.73V5.8H6.167V.18h1.46l.116.667q.36-.423.773-.635Q8.94 0 9.459 0zm7.581.18L15.272 5.8h-1.979L11.483.18h1.82l.995 4.35L15.336.18z" fill="#178a63"/><g fill="#b3b3b3"><path d="M27.665 3.505h-.55l-.389-.725c-.027-.054-.067-.094-.121-.121a.37.37 0 0 0-.174-.04h-.242v.886h-.496V1.224h1.047c.268 0 .47.054.604.174s.201.282.201.51a.64.64 0 0 1-.148.429c-.094.121-.228.188-.403.228.121.027.215.121.295.255zm-.684-1.342c.067-.054.094-.134.094-.242s-.027-.188-.094-.242-.174-.081-.309-.081h-.483v.631h.483c.148.013.242-.013.309-.067zm2.186-.12c.107.107.174.282.174.523v.939h-.456v-.242c-.027.081-.081.148-.161.188a.57.57 0 0 1-.268.067.73.73 0 0 1-.295-.067c-.081-.04-.161-.107-.201-.174a.44.44 0 0 1-.081-.255c0-.121.027-.201.094-.268s.148-.121.282-.148a2.81 2.81 0 0 1 .537-.04h.081v-.054c0-.094-.027-.161-.067-.201s-.107-.054-.215-.054a.91.91 0 0 0-.255.04.97.97 0 0 0-.268.121l-.134-.322a1.09 1.09 0 0 1 .335-.134c.134-.04.255-.054.362-.054.255-.027.429.027.537.134zm-.389 1.047c.054-.067.081-.148.081-.242v-.054h-.054c-.174 0-.295.013-.362.04s-.107.081-.107.148c0 .054.013.107.054.148s.094.054.148.054c.107.013.188-.027.242-.094zm.939-1.933h.523v.456h-.523zm.027 2.348V1.922h.483v1.583zm2.308-1.462c.094.107.134.282.134.496v.966h-.483v-.939c0-.107-.013-.188-.054-.242s-.107-.081-.188-.081c-.107 0-.188.027-.242.094-.067.067-.094.148-.094.255v.912h-.483V1.922h.47v.228a.75.75 0 0 1 .215-.201.73.73 0 0 1 .295-.067c.188 0 .335.054.429.161zm2.885 0c.094.107.134.282.134.496v.966h-.483v-.939c0-.107-.013-.188-.054-.228s-.094-.067-.174-.067c-.094 0-.161.027-.215.094s-.081.161-.081.268v.872h-.47v-.939c0-.107-.013-.188-.054-.228s-.094-.067-.174-.067c-.094 0-.161.027-.215.094s-.081.161-.081.268v.872h-.483V1.922h.47v.215c.054-.081.121-.148.201-.188s.174-.067.282-.067c.228 0 .389.094.47.295a.55.55 0 0 1 .215-.215.59.59 0 0 1 .309-.081c.188 0 .322.054.403.161zm1.771 0c.107.107.174.282.174.523v.939h-.47v-.242c-.027.081-.081.148-.161.188a.57.57 0 0 1-.268.067.73.73 0 0 1-.295-.067c-.081-.04-.161-.107-.201-.174a.44.44 0 0 1-.081-.255c0-.121.027-.201.094-.268s.148-.121.282-.148a2.81 2.81 0 0 1 .537-.04h.081v-.054c0-.094-.027-.161-.067-.201s-.107-.054-.215-.054a.91.91 0 0 0-.255.04.97.97 0 0 0-.268.121l-.134-.322a1.09 1.09 0 0 1 .335-.134c.134-.04.255-.054.362-.054.255-.027.429.027.55.134zm-.389 1.047c.054-.067.081-.148.081-.242v-.054h-.054c-.174 0-.295.013-.362.04s-.107.081-.107.148c0 .054.013.107.054.148s.094.054.148.054c.107.013.188-.027.242-.094z"/><use xlink:href="#B"/><use xlink:href="#B" x="1.248"/><path d="M41.229 2.808h-1.033c.013.121.054.215.121.282a.44.44 0 0 0 .282.081.76.76 0 0 0 .242-.04.68.68 0 0 0 .215-.121l.134.322a1.39 1.39 0 0 1-.282.148.98.98 0 0 1-.335.054c-.268 0-.47-.067-.631-.215-.148-.148-.228-.349-.228-.604a.88.88 0 0 1 .094-.429.74.74 0 0 1 .282-.295.82.82 0 0 1 .403-.107c.215 0 .403.067.523.215s.201.335.201.59v.121zm-.939-.51c-.054.054-.094.148-.107.255h.617a.44.44 0 0 0-.081-.255c-.054-.054-.121-.081-.215-.081-.081 0-.161.027-.215.081zm2.402-.014l-.268.027c-.134.013-.228.054-.282.121s-.081.148-.081.255v.818h-.483V1.922h.47v.268c.081-.188.242-.282.496-.295l.148-.013zm1.111 1.234V1.395h1.315v.207h-1.071v.733h1.014v.207h-1.014v.977z"/><use xlink:href="#C"/><path d="M48.405 2.053v1.465h-.244v-.244c-.038.094-.113.15-.188.207-.075.038-.169.075-.282.075a.54.54 0 0 1-.395-.15c-.094-.094-.132-.244-.132-.432v-.902h.244v.902c0 .132.019.225.075.282s.132.094.244.094a.35.35 0 0 0 .301-.132.49.49 0 0 0 .113-.338v-.827zm1.766.544v.921h-.244v-.902c0-.132-.019-.244-.075-.301a.34.34 0 0 0-.263-.094c-.132 0-.244.038-.319.132-.075.075-.113.188-.113.338v.845h-.244V2.071h.244v.225a.55.55 0 0 1 .207-.207.78.78 0 0 1 .301-.075c.319 0 .507.188.507.582zm1.785-1.202v2.123h-.244v-.282c-.038.094-.113.169-.188.207a.55.55 0 0 1-.301.075.65.65 0 0 1-.338-.094c-.094-.056-.169-.15-.225-.263s-.075-.244-.075-.395.019-.282.075-.395.132-.207.225-.263a.65.65 0 0 1 .338-.094.55.55 0 0 1 .301.075.4.4 0 0 1 .188.207v-.902zm-.357 1.785c.075-.094.113-.225.113-.413s-.038-.319-.113-.413-.188-.15-.338-.15a.44.44 0 0 0-.338.15c-.075.094-.113.225-.113.413 0 .169.038.319.113.413s.188.15.338.15.263-.038.338-.15zm1.86-1.034c.094.094.132.244.132.432v.921h-.244v-.244a.46.46 0 0 1-.169.207c-.075.038-.169.075-.263.075a.6.6 0 0 1-.263-.056c-.075-.038-.15-.094-.188-.15-.038-.075-.075-.15-.075-.225 0-.113.019-.188.075-.263.056-.056.15-.113.282-.132a3.56 3.56 0 0 1 .526-.038h.075v-.094c0-.132-.019-.207-.075-.263s-.132-.075-.244-.075c-.169 0-.338.056-.507.15l-.075-.169a1 1 0 0 1 .282-.132c.113-.038.207-.056.319-.056.188-.019.338.019.413.113zm-.207 1.071c.075-.075.113-.188.113-.319v-.094h-.056l-.395.019c-.094.019-.15.038-.188.075a.21.21 0 0 0-.056.15c0 .075.038.15.094.188.056.056.132.075.207.075.113.038.207-.019.282-.094z"/><path d="M54.868 3.33l-.019.188c-.038 0-.094.019-.15.019-.169 0-.301-.038-.395-.132s-.132-.225-.132-.376v-.77h-.282v-.188h.282V1.62h.244v.451h.413v.188h-.413v.751c0 .225.113.338.319.338.056-.019.094-.019.132-.019zm.282-1.916h.301v.282h-.301zm.019 2.104V2.053h.244v1.465z"/><use xlink:href="#C" x="10.464"/><path d="M58.888 2.597v.921h-.244v-.902c0-.132-.019-.244-.075-.301a.34.34 0 0 0-.263-.094c-.132 0-.244.038-.319.132-.075.075-.113.188-.113.338v.845h-.244V2.071h.244v.225a.55.55 0 0 1 .207-.207.78.78 0 0 1 .301-.075c.338 0 .507.188.507.582zm-37.679-.593q.193 0 .341.094.148.094.23.266.085.172.085.402 0 .23-.085.408-.082.175-.233.272-.148.097-.338.097-.16 0-.287-.07-.124-.07-.19-.193v.239h-.371V1.388h.378v.867q.066-.121.19-.184.124-.066.281-.066zm-.1 1.244q.178 0 .278-.127.1-.127.1-.356 0-.227-.1-.347-.097-.121-.278-.121-.181 0-.281.124-.097.121-.097.35 0 .23.097.353.1.124.281.124zm2.08-1.205h.371l-.888 2.017h-.381l.269-.601-.616-1.416h.399l.417 1.042z"/></g><defs ><path id="B" d="M38.304 3.157l-.027.349c-.067.013-.121.013-.188.013-.242 0-.416-.054-.523-.161s-.161-.268-.161-.483v-.604h-.295v-.362h.295v-.47h.483v.47h.403v.362h-.403v.604c0 .188.094.282.268.282.04.013.094.013.148 0z"/><path id="C" d="M45.7 3.443c-.113-.056-.188-.15-.244-.263s-.094-.244-.094-.395.038-.282.094-.395.132-.207.244-.263.225-.094.357-.094.263.038.376.094.188.15.244.263.094.244.094.395-.038.282-.094.395-.132.207-.244.263-.225.094-.376.094a.72.72 0 0 1-.357-.094zm.695-.244c.075-.094.113-.225.113-.413 0-.169-.038-.319-.113-.413s-.188-.15-.338-.15a.44.44 0 0 0-.338.15c-.094.094-.113.244-.113.413 0 .188.038.319.113.413s.188.15.338.15.263-.056.338-.15z"/></defs></svg>